<?xml version="1.0" encoding="utf-8"?>
<!-- Generator: Adobe Illustrator 16.0.4, SVG Export Plug-In . SVG Version: 6.00 Build 0)  -->
<!DOCTYPE svg PUBLIC "-//W3C//DTD SVG 1.1//EN" "http://www.w3.org/Graphics/SVG/1.1/DTD/svg11.dtd">
<svg version="1.1" id="Layer_2" xmlns="http://www.w3.org/2000/svg" xmlns:xlink="http://www.w3.org/1999/xlink" x="0px" y="0px"
	 width="100px" height="100px" viewBox="0 0 100 100" enable-background="new 0 0 100 100" xml:space="preserve">
<path d="M99.5,79.498V59.499c-9.929,0.003-19.003,3.625-25.993,9.61c3.848,9.36,5.986,19.605,5.993,30.353
	C79.542,88.438,88.471,79.52,99.5,79.498z"/>
<path d="M63.5,51.501c10.031-7.54,22.461-11.996,36-12.001v-20c-18.927,0.002-36.304,6.588-50,17.572
	C54.745,41.279,59.458,46.121,63.5,51.501z"/>
<path d="M-0.5,59.499v19.999c11.04,0.021,19.979,8.96,20,20.002c0.001-10.762,2.141-21.019,5.993-30.39
	C18.501,63.125,9.428,59.502-0.5,59.499z"/>
<path d="M79.501,99.5c0-0.013-0.001-0.025-0.001-0.038c0,0.013-0.002,0.025-0.002,0.038H79.501z"/>
<path d="M49.5,37.072C35.803,26.088,18.426,19.502-0.5,19.5v20c13.538,0.005,25.967,4.461,35.999,12.002
	C39.54,46.121,44.253,41.279,49.5,37.072z"/>
<path d="M63.5,51.501c-4.042-5.38-8.755-10.222-14-14.429c-5.246,4.207-9.959,9.049-14.001,14.43
	c2.269,1.705,4.417,3.566,6.426,5.572c2.824,2.827,5.359,5.934,7.575,9.265c2.216-3.332,4.75-6.438,7.575-9.266
	C59.083,55.067,61.23,53.207,63.5,51.501z"/>
<path d="M59.499,99.5h19.999c0-0.013,0.002-0.025,0.002-0.038c-0.007-10.747-2.146-20.992-5.993-30.353
	C64.938,76.444,59.502,87.331,59.499,99.5z"/>
<path d="M25.493,69.11c-3.852,9.371-5.991,19.628-5.993,30.39h20C39.496,87.332,34.06,76.445,25.493,69.11z"/>
</svg>
