<?xml version="1.0" encoding="utf-8"?>
<!-- Generator: Adobe Illustrator 16.0.4, SVG Export Plug-In . SVG Version: 6.00 Build 0)  -->
<!DOCTYPE svg PUBLIC "-//W3C//DTD SVG 1.1//EN" "http://www.w3.org/Graphics/SVG/1.1/DTD/svg11.dtd">
<svg version="1.1" id="Layer_2" xmlns="http://www.w3.org/2000/svg" xmlns:xlink="http://www.w3.org/1999/xlink" x="0px" y="0px"
	 width="100px" height="100px" viewBox="0 0 100 100" enable-background="new 0 0 100 100" xml:space="preserve">
<g>
	<path d="M36.572,50C25.588,63.697,19.002,81.074,19,100h20c0.005-13.538,4.461-25.967,12.002-35.998
		c1.705-2.27,3.566-4.418,5.572-6.427c2.827-2.824,5.934-5.358,9.265-7.575c-3.332-2.216-6.438-4.75-9.266-7.574
		c-2.006-2.009-3.866-4.156-5.572-6.426C43.461,25.969,39.005,13.539,39,0H19C19.002,18.927,25.588,36.304,36.572,50z"/>
	<path d="M99,40.001V20.002v-0.003c-0.013,0-0.025,0.001-0.038,0.001C87.938,19.958,79.02,11.029,78.998,0H58.999
		c0.003,9.929,3.625,19.003,9.61,25.993C75.944,34.562,86.831,39.998,99,40.001z"/>
	<path d="M68.61,74.008c-5.985,6.99-9.608,16.064-9.611,25.992h19.999C79.02,88.96,87.958,80.021,99,80V60
		C86.832,60.004,75.945,65.439,68.61,74.008z"/>
</g>
</svg>
