<?xml version="1.0" encoding="utf-8"?>
<!-- Generator: Adobe Illustrator 16.0.4, SVG Export Plug-In . SVG Version: 6.00 Build 0)  -->
<!DOCTYPE svg PUBLIC "-//W3C//DTD SVG 1.1//EN" "http://www.w3.org/Graphics/SVG/1.1/DTD/svg11.dtd">
<svg version="1.1" id="Layer_2" xmlns="http://www.w3.org/2000/svg" xmlns:xlink="http://www.w3.org/1999/xlink" x="0px" y="0px"
	 width="100px" height="100px" viewBox="0 0 100 100" enable-background="new 0 0 100 100" xml:space="preserve">
<g>
	<path d="M49.5,61.93c13.7,10.984,31.077,17.569,50.002,17.572v-20c-13.538-0.005-25.967-4.461-35.998-12.004
		c-2.27-1.705-4.418-3.566-6.427-5.572c-2.824-2.827-5.358-5.934-7.578-9.265c-2.216,3.332-4.75,6.438-7.574,9.266
		c-2.009,2.006-4.156,3.866-6.426,5.572c-10.031,7.542-22.461,11.999-36,12.003v20C18.426,79.499,35.803,72.914,49.5,61.93z"/>
	<path d="M39.5-0.5H19.501h-0.003c0,0.013,0.001,0.025,0.001,0.038c-0.042,11.024-8.971,19.942-20,19.964V39.5
		c9.929-0.003,19.003-3.625,25.993-9.61C34.061,22.555,39.498,11.668,39.5-0.5z"/>
	<path d="M73.51,29.889c6.99,5.985,16.064,9.608,25.992,9.611V19.501c-11.04-0.021-19.979-8.96-20-20.002h-20
		C59.506,11.667,64.941,22.554,73.51,29.889z"/>
</g>
</svg>
