<?xml version="1.0" encoding="utf-8"?>
<!-- Generator: Adobe Illustrator 16.0.4, SVG Export Plug-In . SVG Version: 6.00 Build 0)  -->
<!DOCTYPE svg PUBLIC "-//W3C//DTD SVG 1.1//EN" "http://www.w3.org/Graphics/SVG/1.1/DTD/svg11.dtd">
<svg version="1.1" id="Layer_2" xmlns="http://www.w3.org/2000/svg" xmlns:xlink="http://www.w3.org/1999/xlink" x="0px" y="0px"
	 width="100px" height="100px" viewBox="0 0 100 100" enable-background="new 0 0 100 100" xml:space="preserve">
<g>
	<path d="M61.93,49.5c10.984-13.697,17.57-31.073,17.572-50h-20c-0.005,13.538-4.461,25.967-12.004,35.999
		c-1.705,2.269-3.566,4.417-5.572,6.426c-2.827,2.824-5.934,5.359-9.265,7.575c3.332,2.216,6.438,4.75,9.266,7.575
		c2.006,2.009,3.866,4.156,5.572,6.426c7.542,10.031,11.999,22.461,12.003,36h20C79.5,80.573,72.914,63.196,61.93,49.5z"/>
	<path d="M-0.5,59.499v19.999v0.003c0.013,0,0.025-0.001,0.038-0.001c11.024,0.042,19.942,8.971,19.964,20H39.5
		c-0.003-9.929-3.625-19.003-9.61-25.993C22.555,64.938,11.668,59.502-0.5,59.499z"/>
	<path d="M29.889,25.493C35.875,18.501,39.498,9.428,39.5-0.5H19.501c-0.021,11.04-8.96,19.979-20.002,20v20
		C11.667,39.496,22.554,34.06,29.889,25.493z"/>
</g>
</svg>
