<?xml version="1.0" encoding="utf-8"?>
<!-- Generator: Adobe Illustrator 16.0.4, SVG Export Plug-In . SVG Version: 6.00 Build 0)  -->
<!DOCTYPE svg PUBLIC "-//W3C//DTD SVG 1.1//EN" "http://www.w3.org/Graphics/SVG/1.1/DTD/svg11.dtd">
<svg version="1.1" xmlns="http://www.w3.org/2000/svg" xmlns:xlink="http://www.w3.org/1999/xlink" x="0px" y="0px" width="100px"
	 height="100px" viewBox="0 0 100 100" enable-background="new 0 0 100 100" xml:space="preserve">
<g id="Ebene_1" display="none">
	<path display="inline" d="M99.5,19.5c-11.038-0.021-19.973-8.953-20.001-19.987c0-0.004,0-0.009,0-0.013h-20
		c-0.004,12.29-3.681,23.663-9.999,33.162c-6.317-9.5-9.996-20.872-10-33.162l0,0l0,0h-20c-0.021,11.04-8.96,19.979-20,20v20l0,0
		l0,0c12.29,0.005,23.662,3.683,33.161,10.001c-9.499,6.317-20.872,9.995-33.162,9.999v20.002c0.013,0,0.025-0.001,0.038-0.001
		c11.023,0.042,19.942,8.972,19.962,20h20c0.005-12.29,3.683-23.663,10-33.162c6.317,9.499,9.995,20.872,10,33.162h20.002
		c0-0.013-0.001-0.024-0.001-0.038c0.042-11.023,8.971-19.941,20-19.964v-20c-12.29-0.005-23.663-3.683-33.162-10
		c9.499-6.317,20.872-9.995,33.162-10V19.5z"/>
</g>
<g id="Layer_2">
	<path d="M0,19.502v0.197c0.78-0.001,1.547-0.059,2.304-0.146C1.537,19.53,0.772,19.502,0,19.502z"/>
	<path d="M99.701,19.999v0.003v19.506c0.1,0,0.198-0.006,0.299-0.006v-20c-1.384,0-2.756,0.046-4.123,0.116
		c1.227,0.24,2.49,0.377,3.786,0.382C99.676,20,99.688,19.999,99.701,19.999z"/>
	<path d="M79.996,99.502h0.002h0.003c0-0.013-0.001-0.025-0.001-0.038c0.013-3.428,0.887-6.65,2.414-9.467
		c-1.242,2.14-2.093,4.527-2.472,7.075C79.969,97.88,79.993,98.688,79.996,99.502z"/>
	<path d="M40,99.502c0-0.437-0.022-0.866-0.037-1.299c0.016,0.431,0.028,0.864,0.03,1.299H40z"/>
	<path d="M39.952,97.807c-0.024-0.575-0.064-1.146-0.112-1.715c-0.001,0.014-0.001,0.028-0.002,0.042
		C39.887,96.688,39.926,97.246,39.952,97.807z"/>
	<path d="M19.77,96.847c-0.041,1.047-0.069,2.098-0.069,3.155h20c0-0.101,0.006-0.199,0.006-0.3H20.002
		C20,98.729,19.906,97.781,19.77,96.847z"/>
	<path d="M19.701,0c0,0.881,0.029,1.755,0.058,2.628C19.887,1.768,19.971,0.893,19.986,0H19.701z"/>
	<path d="M99.701,40.001v-0.493c-1.602,0.008-3.189,0.074-4.758,0.205C96.504,39.899,98.09,40,99.701,40.001z"/>
	<path d="M59.703,0c0,1.203,0.057,2.392,0.161,3.568c0.075-1.181,0.123-2.369,0.13-3.568H59.703z"/>
	<path d="M59.887,96.194c-0.119,1.253-0.184,2.522-0.184,3.808h19.996c0-0.102,0.014-0.199,0.016-0.3H60
		C60,98.523,59.953,97.355,59.887,96.194z"/>
	<path d="M79.932,2.856C79.972,1.808,80,0.757,80-0.301H60C60-0.2,59.994-0.101,59.994,0h19.705
		C79.701,0.973,79.796,1.921,79.932,2.856z"/>
	<path d="M79.715,99.702H80c0-0.067-0.004-0.133-0.004-0.2h-0.271C79.724,99.569,79.716,99.635,79.715,99.702z"/>
	<path d="M79.726,99.502h0.271c-0.003-0.813-0.027-1.622-0.054-2.43C79.824,97.868,79.747,98.678,79.726,99.502z"/>
	<path d="M39.952,97.807c0.006,0.132,0.007,0.265,0.011,0.396C39.958,98.071,39.958,97.938,39.952,97.807z"/>
	<path d="M39.708,99.702h0.291c0-0.067-0.004-0.133-0.005-0.2h-0.282C39.711,99.569,39.708,99.635,39.708,99.702z"/>
	<path d="M39.711,99.502h0.282c-0.002-0.435-0.014-0.868-0.03-1.299c-0.004-0.132-0.005-0.265-0.011-0.396
		c-0.026-0.561-0.065-1.118-0.115-1.673C39.766,97.249,39.721,98.371,39.711,99.502z"/>
	<path d="M20,99.502c-0.002-0.96-0.094-1.896-0.227-2.82c-0.002,0.055-0.001,0.11-0.003,0.165c0.136,0.935,0.23,1.883,0.232,2.855
		h19.706c0-0.067,0.003-0.133,0.004-0.2H20z"/>
	<path d="M0,39.699c0.985,0,1.958-0.049,2.925-0.119C1.955,39.533,0.981,39.502,0,39.502V39.699z"/>
	<path d="M39.815,3.507c0.119-1.254,0.183-2.524,0.183-3.809H20.002c0,0.102-0.014,0.2-0.016,0.301h19.715
		C39.702,1.179,39.748,2.346,39.815,3.507z"/>
	<g>
		<path d="M74.007,69.111c-0.021,0.019-0.041,0.038-0.062,0.057c-3.334,2.865-6.183,6.274-8.426,10.083
			c-3.061,5.027-5.048,10.778-5.632,16.943C59.953,97.355,60,98.523,60,99.702h19.715c0.001-0.067,0.009-0.133,0.011-0.2
			c0.021-0.824,0.099-1.634,0.217-2.43c0.379-2.548,1.229-4.936,2.472-7.075c3.463-5.962,9.896-9.982,17.287-9.995v-0.486
			C99.802,79.514,99.899,79.5,100,79.5V59.502C90.071,59.506,80.997,63.126,74.007,69.111z"/>
		<path d="M25.993,69.112c-0.02-0.017-0.041-0.032-0.06-0.049C18.949,63.107,9.9,59.506,0,59.502v0.199V79.5v0.2v0.003
			c0.013,0,0.025-0.001,0.038-0.001c10.053,0.038,18.33,7.474,19.732,17.145c0.002-0.055,0.001-0.11,0.003-0.165
			c0.132,0.924,0.225,1.86,0.227,2.82h19.711c0.01-1.131,0.055-2.253,0.126-3.368c0.001-0.014,0.001-0.028,0.002-0.042
			C38.925,85.312,33.75,75.754,25.993,69.112z"/>
		<path d="M69.311,25.993c1.385,1.618,2.896,3.123,4.52,4.502c5.835,4.958,13.11,8.267,21.113,9.218
			c1.568-0.131,3.156-0.197,4.758-0.205V20.002v-0.003c-0.013,0-0.025,0.001-0.038,0.001c-1.296-0.005-2.56-0.143-3.786-0.382
			C87.589,18,81.152,11.28,79.932,2.856C79.796,1.921,79.701,0.973,79.699,0H59.994c-0.007,1.199-0.055,2.387-0.13,3.568
			c0.745,8.405,4.092,16.053,9.224,22.154C69.163,25.811,69.234,25.904,69.311,25.993z"/>
		<path d="M25.677,30.348c1.695-1.422,3.274-2.977,4.712-4.657c0.04-0.047,0.078-0.097,0.118-0.144
			c5.143-6.063,8.514-13.673,9.308-22.04C39.748,2.346,39.702,1.179,39.701,0H19.986c-0.015,0.893-0.1,1.768-0.228,2.628
			c-1.324,8.897-8.47,15.878-17.455,16.924C1.547,19.64,0.78,19.697,0,19.699v19.803c0.981,0,1.955,0.031,2.925,0.078
			C11.561,38.952,19.431,35.59,25.677,30.348z"/>
	</g>
</g>
</svg>
